<svg xmlns="http://www.w3.org/2000/svg" version="1.1" xmlns:xlink="http://www.w3.org/1999/xlink" xmlns:svgjs="http://svgjs.com/svgjs" width="5000" height="3000" preserveAspectRatio="none" viewBox="0 0 5000 3000"><g mask="url(&quot;#SvgjsMask1633&quot;)" fill="none"><rect width="5000" height="3000" x="0" y="0" fill="url(#SvgjsLinearGradient1634)"></rect><path d="M925.0470011868222 1276.6657792670721L1574.999100166976 1242.6032331191707 890.9844550389206 626.7136802869184z" fill="rgba(28, 124, 142, 0.4)" class="triangle-float3"></path><path d="M4126.9166033256015 2387.4982002188594L4563.316140623395 2202.257586830422 4378.075527234958 1765.8580495326285 3941.675989937164 1951.0986629210659z" fill="rgba(28, 124, 142, 0.4)" class="triangle-float1"></path><path d="M4668.263,2176.784C4757.141,2176.873,4835.135,2123.472,4880.542,2047.068C4927.055,1968.803,4941.065,1872.127,4896.504,1792.734C4851.094,1711.828,4761.014,1671.141,4668.263,1668.857C4570.867,1666.459,4467.288,1695.988,4419.688,1780.994C4372.87,1864.604,4405.753,1965.496,4456.718,2046.645C4503.911,2121.788,4579.529,2176.695,4668.263,2176.784" fill="rgba(28, 124, 142, 0.4)" class="triangle-float1"></path><path d="M-476.3303760684334 2478.0330681882174L279.51393416149034 2846.682970169436-107.68047408721469 1722.1887579582935z" fill="rgba(28, 124, 142, 0.4)" class="triangle-float1"></path><path d="M1699.4872154018165 2880.66821291164L1073.3384242301167 2354.2492931316556 936.8927931032089 3056.201212707193z" fill="rgba(28, 124, 142, 0.4)" class="triangle-float1"></path><path d="M3741.8737496525514 735.9845337144221L2947.5017004353535 694.3532586904303 2905.870425411362 1488.7253079076281 3700.2424746285596 1530.3565829316199z" fill="rgba(28, 124, 142, 0.4)" class="triangle-float1"></path><path d="M-155.29317032425826 2579.853566781274L485.3213354437102 2980.1539378242182 885.6217064866546 2339.53943205625 245.00720071868608 1939.2390610133054z" fill="rgba(28, 124, 142, 0.4)" class="triangle-float2"></path><path d="M4888.810238829376 1094.4666010448243L4582.645686429985 604.5008962716802 4000.779405469965 1308.7305772573395z" fill="rgba(28, 124, 142, 0.4)" class="triangle-float1"></path><path d="M4905.015618483381 442.21175936439755L4834.296271608339-4.292624084729027 4199.899369872171 325.03858795239745z" fill="rgba(28, 124, 142, 0.4)" class="triangle-float2"></path><path d="M3028.9644983954995 1358.2024688098932L3536.2501891989536 1053.394474609906 3231.4421949989664 546.1087838064518 2724.1565041955123 850.916778006439z" fill="rgba(28, 124, 142, 0.4)" class="triangle-float1"></path><path d="M3089.962213993071 2249.4436659474745L2398.2796580452714 2434.7794482323825 2583.615440330179 3126.4620041801822 3275.297996277979 2941.1262218952743z" fill="rgba(28, 124, 142, 0.4)" class="triangle-float3"></path><path d="M1677.7922672904324 952.6620951837797L1938.9794373473196 1866.817190382884 2526.650569975315 1279.1460577548883z" fill="rgba(28, 124, 142, 0.4)" class="triangle-float2"></path><path d="M4971.012268080055 453.4213100885735L4304.523551722568 99.04297350534614 3950.1452151393414 765.5316898628325 4616.633931496828 1119.9100264460599z" fill="rgba(28, 124, 142, 0.4)" class="triangle-float1"></path><path d="M2595.31,2416.545C2902.344,2398.654,3081.977,2101.993,3225.312,1829.881C3355.883,1582.001,3454.724,1293.473,3314.718,1050.798C3174.655,808.024,2875.47,729.688,2595.31,737.882C2331.16,745.608,2090.428,870.021,1945.276,1090.851C1782.475,1338.533,1693.371,1645.419,1823.862,1911.544C1968.889,2207.314,2266.455,2435.708,2595.31,2416.545" fill="rgba(28, 124, 142, 0.4)" class="triangle-float3"></path><path d="M4494.785069174699 2895.6359276090852L5173.752324089791 2979.0026238712853 5257.119020351991 2300.0353689561935 4578.151765436899 2216.6686726939934z" fill="rgba(28, 124, 142, 0.4)" class="triangle-float1"></path><path d="M1821.587,1129.682C2111.414,1140.392,2413.691,1052.476,2565.878,805.588C2724.577,548.135,2715.961,207.459,2542.991,-40.632C2388.807,-261.778,2091.174,-260.841,1821.587,-261.948C1549.078,-263.067,1237.486,-275.652,1089.851,-46.597C934.201,194.894,1015.08,509.935,1166.839,753.89C1309.303,982.904,1552.061,1119.723,1821.587,1129.682" fill="rgba(28, 124, 142, 0.4)" class="triangle-float3"></path><path d="M263.799,881.122C473.241,888.501,656.673,757.139,766.348,578.556C882.046,390.165,935.221,156.014,827.78,-37.205C717.831,-234.936,489.872,-334.017,263.799,-325.217C52.259,-316.983,-132.611,-184.587,-228.936,3.929C-317.266,176.799,-276.013,375.925,-180.94,545.18C-83.419,718.791,64.796,874.11,263.799,881.122" fill="rgba(28, 124, 142, 0.4)" class="triangle-float3"></path><path d="M580.5227501869265 2658.6975017027416L27.38399001252469 2084.8120369511275-176.3280707141987 2751.1241641959314z" fill="rgba(28, 124, 142, 0.4)" class="triangle-float1"></path><path d="M4258.515837062346 973.2593725535065L3871.369509849845 1568.1704322839992 4490.325930252981 1611.4520814947577z" fill="rgba(28, 124, 142, 0.4)" class="triangle-float1"></path><path d="M2223.1870091211276-195.73035376677166L1742.8768896894667 221.79686309409908 2160.4041065503375 702.10698252576 2640.7142259819984 284.5797656648893z" fill="rgba(28, 124, 142, 0.4)" class="triangle-float2"></path></g><defs><mask id="SvgjsMask1633"><rect width="5000" height="3000" fill="#ffffff"></rect></mask><linearGradient x1="10%" y1="-16.67%" x2="90%" y2="116.67%" gradientUnits="userSpaceOnUse" id="SvgjsLinearGradient1634"><stop stop-color="#0e2a47" offset="0"></stop><stop stop-color="rgba(92, 0, 158, 1)" offset="1"></stop></linearGradient><style>
            @keyframes float1 {
                0%{transform: translate(0, 0)}
                50%{transform: translate(-10px, 0)}
                100%{transform: translate(0, 0)}
            }

            .triangle-float1 {
                animation: float1 5s infinite;
            }

            @keyframes float2 {
                0%{transform: translate(0, 0)}
                50%{transform: translate(-5px, -5px)}
                100%{transform: translate(0, 0)}
            }

            .triangle-float2 {
                animation: float2 4s infinite;
            }

            @keyframes float3 {
                0%{transform: translate(0, 0)}
                50%{transform: translate(0, -10px)}
                100%{transform: translate(0, 0)}
            }

            .triangle-float3 {
                animation: float3 6s infinite;
            }
        </style></defs></svg>